<?xml version="1.0" standalone="no"?>
<!DOCTYPE svg PUBLIC "-//W3C//DTD SVG 20010904//EN"
 "http://www.w3.org/TR/2001/REC-SVG-20010904/DTD/svg10.dtd">
<svg version="1.0" xmlns="http://www.w3.org/2000/svg"
 width="290.000000pt" height="288.000000pt" viewBox="0 0 290.000000 288.000000"
 preserveAspectRatio="xMidYMid meet">

  <linearGradient id="grad1" x1="0%" y1="0%" x2="100%" y2="0%" gradientTransform="rotate(-45)">
      <stop offset="0%" style="stop-color:#072142;stop-opacity:1" />
      <stop offset="22%" style="stop-color:#8c2b7a;stop-opacity:1" />
      <stop offset="60%" style="stop-color:#ff4d5a;stop-opacity:1" />
    </linearGradient> 

<g transform="translate(0.000000,288.000000) scale(0.100000,-0.100000)"
fill="url(#grad1)" stroke="none">
<path d="M980 2862 c-127 -33 -234 -119 -287 -232 -17 -36 -33 -72 -36 -81 -3
-9 -30 -30 -59 -47 -68 -38 -154 -131 -186 -202 -14 -30 -30 -89 -36 -132 -7
-56 -15 -79 -26 -83 -9 -3 -40 -28 -69 -57 -87 -85 -131 -194 -131 -324 0 -67
-2 -75 -43 -135 -140 -209 -122 -483 43 -664 l56 -60 -10 -60 c-42 -269 194
-555 458 -555 50 0 52 -1 80 -45 81 -129 270 -205 434 -176 93 17 162 50 227
112 l55 51 55 -50 c143 -131 333 -156 512 -67 70 35 142 100 166 153 9 19 18
22 63 22 111 0 260 71 340 163 87 100 138 270 118 393 l-9 59 56 62 c31 34 68
85 83 115 31 62 56 172 56 244 0 100 -50 248 -114 333 -21 29 -25 44 -25 111
0 85 -25 174 -65 239 -24 37 -131 141 -145 141 -5 0 -11 33 -14 72 -11 134
-102 271 -225 341 -30 16 -56 37 -59 46 -66 218 -287 360 -504 323 -93 -16
-166 -52 -234 -114 l-55 -50 -53 50 c-64 59 -115 87 -199 107 -81 19 -137 18
-218 -3z m935 -182 c91 -39 147 -114 164 -219 6 -35 12 -65 13 -66 2 -1 28
-10 59 -18 87 -26 159 -93 187 -176 14 -39 15 -107 3 -168 l-8 -42 56 -22 c77
-32 152 -108 171 -174 19 -64 18 -131 -3 -182 l-16 -40 55 -54 c30 -30 67 -79
82 -109 22 -47 26 -68 26 -145 0 -78 -3 -98 -28 -152 -29 -64 -100 -141 -163
-178 -18 -11 -33 -23 -33 -28 0 -4 10 -27 22 -50 19 -35 23 -58 23 -132 0 -78
-4 -97 -28 -147 -50 -103 -137 -159 -257 -166 -41 -2 -92 0 -112 6 l-36 10
-22 -58 c-45 -121 -133 -184 -255 -185 -125 0 -212 59 -256 175 -16 42 -19 76
-19 205 l0 155 170 0 c103 0 170 -4 170 -10 0 -20 66 -84 105 -101 54 -25 145
-25 193 0 79 41 123 112 123 200 1 90 -45 163 -128 205 -43 22 -137 20 -188
-3 -39 -17 -105 -81 -105 -101 0 -6 -67 -10 -170 -10 l-170 0 0 545 0 545 135
0 c145 0 194 -11 214 -48 14 -26 15 -122 1 -122 -20 0 -84 -66 -101 -105 -23
-49 -24 -133 -4 -183 55 -131 237 -173 349 -80 52 42 77 97 77 167 1 84 -23
132 -92 184 -34 26 -37 31 -41 96 -8 114 -71 203 -175 248 -28 12 -79 18 -200
21 l-163 4 0 147 c0 172 12 227 66 289 78 91 199 120 309 72z m-746 4 c65 -19
131 -77 163 -142 20 -42 23 -65 26 -214 l4 -168 -74 0 -74 0 -38 46 c-49 58
-103 83 -179 84 -74 0 -116 -20 -166 -77 -77 -86 -77 -200 0 -286 50 -57 92
-77 166 -77 75 1 128 25 180 84 l41 46 71 0 71 0 0 -315 0 -315 -152 0 c-84 0
-171 -5 -193 -11 -89 -25 -162 -100 -185 -191 -9 -35 -19 -48 -47 -64 -44 -23
-89 -90 -98 -145 -10 -61 11 -132 56 -182 50 -57 92 -77 166 -77 72 0 129 25
170 74 77 94 69 221 -19 309 -26 26 -48 52 -48 57 0 5 12 18 26 29 24 19 40
21 176 21 l149 0 -3 -392 c-3 -387 -3 -394 -26 -440 -109 -221 -416 -201 -499
32 l-16 46 -116 -1 c-110 0 -119 1 -169 29 -145 81 -200 242 -138 399 14 35
26 66 26 69 0 4 -17 17 -37 29 -91 54 -142 113 -173 198 -51 135 -18 271 93
380 l55 53 -20 57 c-50 142 20 277 176 341 l53 21 -9 57 c-26 160 50 287 196
330 l61 18 6 55 c9 74 21 101 71 155 78 85 168 111 277 78z m-126 -535 c14 -6
30 -22 36 -36 31 -68 -11 -133 -85 -133 -37 0 -84 51 -84 90 0 22 9 41 29 61
31 31 64 36 104 18z m990 -450 c14 -6 30 -22 36 -36 31 -68 -11 -133 -85 -133
-37 0 -84 51 -84 90 0 22 9 41 29 61 31 31 64 36 104 18z m-1080 -720 c14 -6
30 -22 36 -36 31 -68 -11 -133 -85 -133 -37 0 -84 51 -84 90 0 22 9 41 29 61
31 31 64 36 104 18z m1170 -90 c14 -6 30 -22 36 -36 31 -68 -11 -133 -85 -133
-37 0 -84 51 -84 90 0 22 9 41 29 61 31 31 64 36 104 18z"/>
</g>
</svg>
