<?xml version="1.0" standalone="no"?>
<!DOCTYPE svg PUBLIC "-//W3C//DTD SVG 20010904//EN"
 "http://www.w3.org/TR/2001/REC-SVG-20010904/DTD/svg10.dtd">
<svg version="1.0" xmlns="http://www.w3.org/2000/svg"
 width="289.000000pt" height="252.000000pt" viewBox="0 0 289.000000 252.000000"
 preserveAspectRatio="xMidYMid meet">

 <linearGradient id="grad1" x1="0%" y1="0%" x2="100%" y2="0%" gradientTransform="rotate(-45)">
      <stop offset="0%" style="stop-color:#072142;stop-opacity:1" />
      <stop offset="22%" style="stop-color:#8c2b7a;stop-opacity:1" />
      <stop offset="60%" style="stop-color:#ff4d5a;stop-opacity:1" />
    </linearGradient> 
   
<g transform="translate(0.000000,252.000000) scale(0.100000,-0.100000)"
fill="url(#grad1)" stroke="none">
<path d="M52 2510 c-54 -22 -53 5 -50 -1108 l3 -1027 22 -65 c40 -117 112
-204 212 -255 114 -57 61 -55 1369 -55 1280 0 1248 -1 1266 45 12 32 6 83 -13
106 l-19 24 -1229 5 c-1114 5 -1231 7 -1264 22 -57 25 -114 83 -140 141 l-24
52 -5 1045 c-3 575 -6 1046 -8 1047 -1 1 -15 9 -32 18 -33 17 -54 18 -88 5z"/>
<path d="M1853 1970 c-45 -18 -59 -99 -24 -141 19 -24 20 -24 290 -29 l271 -5
-292 -292 -293 -292 -250 244 c-137 135 -260 247 -272 251 -12 3 -30 3 -40 0
-10 -3 -171 -158 -357 -345 -306 -306 -339 -343 -339 -372 0 -24 8 -40 31 -61
61 -54 57 -57 384 269 l297 297 250 -247 c138 -136 262 -249 275 -253 14 -3
33 -3 43 1 10 3 169 154 353 335 l335 329 5 -258 c6 -288 9 -304 74 -316 38
-8 90 14 100 40 3 9 6 194 6 410 0 372 -1 394 -19 416 l-19 24 -394 2 c-216 1
-403 -2 -415 -7z"/>
</g>
</svg>
