<?xml version="1.0" standalone="no"?>
<!DOCTYPE svg PUBLIC "-//W3C//DTD SVG 20010904//EN"
 "http://www.w3.org/TR/2001/REC-SVG-20010904/DTD/svg10.dtd">
<svg version="1.0" xmlns="http://www.w3.org/2000/svg"
 width="289.000000pt" height="289.000000pt" viewBox="0 0 289.000000 289.000000"
 preserveAspectRatio="xMidYMid meet">

  <linearGradient id="grad1" x1="0%" y1="0%" x2="100%" y2="0%" gradientTransform="rotate(-45)">
      <stop offset="0%" style="stop-color:#072142;stop-opacity:1" />
      <stop offset="22%" style="stop-color:#8c2b7a;stop-opacity:1" />
      <stop offset="60%" style="stop-color:#ff4d5a;stop-opacity:1" />
    </linearGradient> 

<g transform="translate(0.000000,289.000000) scale(0.100000,-0.100000)"
fill="url(#grad1)" stroke="none">
<path d="M862 2880 c-42 -17 -53 -68 -50 -216 l3 -134 -60 0 c-224 0 -372
-139 -391 -368 l-7 -82 -138 0 c-76 0 -149 -4 -164 -10 -15 -6 -32 -24 -41
-45 -12 -31 -12 -39 0 -70 9 -21 26 -39 41 -45 15 -6 89 -10 166 -10 117 0
139 -2 139 -15 0 -8 1 -78 1 -155 0 -77 -1 -151 -1 -164 l0 -25 -156 -3 c-150
-3 -157 -4 -175 -27 -25 -30 -25 -92 0 -122 18 -23 25 -24 175 -27 l155 -3 3
-180 3 -179 -145 0 c-160 0 -186 -7 -206 -55 -16 -40 2 -95 36 -112 17 -8 73
-13 166 -13 l141 0 7 -82 c19 -229 167 -368 391 -368 l60 0 -3 -137 c-2 -117
0 -143 15 -172 29 -56 98 -66 143 -21 18 18 20 34 20 175 l0 155 180 0 180 0
0 -137 c0 -112 3 -145 18 -172 28 -56 97 -66 142 -21 18 18 20 34 20 175 l0
155 180 0 180 0 0 -135 c0 -154 12 -199 57 -216 15 -6 42 -8 60 -4 56 10 63
31 63 201 l0 151 88 5 c116 7 192 40 262 114 71 75 93 128 98 241 l4 93 145 0
c184 0 213 12 213 90 0 78 -29 90 -215 90 l-145 0 0 180 0 180 145 0 c186 0
215 12 215 90 0 78 -29 90 -215 90 l-145 0 0 179 0 180 161 3 c155 3 161 4
180 27 10 13 19 38 19 56 0 83 -26 95 -213 95 l-145 0 -4 93 c-5 113 -27 166
-98 241 -70 74 -146 107 -262 114 l-88 5 0 148 c0 81 -3 155 -6 164 -10 26
-62 48 -100 40 -60 -11 -69 -38 -69 -207 l0 -148 -182 0 -183 0 0 155 c0 141
-2 157 -20 175 -45 45 -114 35 -142 -21 -15 -27 -18 -60 -18 -171 l0 -138
-180 0 -180 0 0 149 c0 82 -3 157 -6 166 -8 19 -55 45 -81 44 -10 0 -28 -4
-41 -9z m1384 -549 c23 -10 52 -34 65 -52 l24 -34 5 -760 c3 -418 1 -778 -3
-799 -11 -54 -43 -95 -91 -117 -39 -18 -81 -19 -801 -19 -716 0 -762 1 -800
19 -49 22 -73 48 -91 98 -20 56 -20 1510 0 1566 18 50 42 76 91 98 38 18 84
19 800 19 720 0 762 -1 801 -19z"/>
<path d="M824 2151 c-47 -21 -77 -59 -93 -116 -15 -56 -15 -1114 0 -1170 16
-57 46 -95 93 -116 38 -17 77 -19 620 -19 568 0 581 0 623 21 29 14 52 35 68
63 l25 43 0 594 0 594 -23 39 c-14 25 -39 48 -66 63 l-44 23 -581 0 c-545 0
-584 -2 -622 -19z m1158 -701 l3 -540 -542 0 -543 0 0 540 0 540 540 0 540 0
2 -540z"/>
</g>
</svg>
