<?xml version="1.0" standalone="no"?>
<!DOCTYPE svg PUBLIC "-//W3C//DTD SVG 20010904//EN"
 "http://www.w3.org/TR/2001/REC-SVG-20010904/DTD/svg10.dtd">
<svg version="1.0" xmlns="http://www.w3.org/2000/svg"
 width="567.000000pt" height="275.000000pt" viewBox="0 0 567.000000 275.000000"
 preserveAspectRatio="xMidYMid meet">

<g transform="translate(0.000000,275.000000) scale(0.100000,-0.100000)"
fill="#072142" stroke="none">
<path d="M1480 2718 c-49 -34 -72 -83 -67 -144 4 -58 26 -94 78 -123 36 -21
44 -21 1029 -21 985 0 993 0 1029 21 52 29 74 65 78 123 5 61 -18 110 -67 144
l-33 22 -1007 0 -1007 0 -33 -22z"/>
<path d="M3943 2719 c-44 -22 -83 -82 -83 -129 0 -48 39 -108 84 -129 116 -57
246 11 246 129 0 118 -131 187 -247 129z"/>
<path d="M753 2149 c-116 -57 -115 -222 1 -278 41 -21 55 -21 695 -21 629 0
653 -1 690 -20 104 -52 109 -202 9 -257 -29 -16 -69 -19 -340 -23 -291 -5
-308 -6 -335 -26 -69 -51 -91 -128 -57 -200 27 -56 65 -76 160 -85 95 -8 137
-28 171 -79 46 -67 20 -159 -57 -204 -34 -21 -51 -21 -810 -26 l-775 -5 -33
-23 c-64 -46 -84 -139 -43 -204 42 -68 -64 -62 1351 -68 l1285 -5 47 -23 c109
-54 119 -175 20 -242 -34 -24 -42 -25 -257 -30 -220 -5 -222 -5 -262 -32 -29
-19 -46 -40 -58 -72 -30 -78 -7 -144 65 -194 l33 -22 1650 0 1650 0 34 21 c48
30 76 90 70 152 -5 60 -30 95 -87 124 l-44 23 -789 0 c-762 0 -789 1 -826 20
-62 31 -91 73 -91 130 0 38 6 55 26 80 42 49 72 59 199 65 129 6 160 16 197
67 17 24 23 47 23 85 0 56 -18 90 -69 127 -27 20 -41 21 -594 26 -312 3 -576
9 -587 14 -80 36 -120 95 -112 169 3 40 11 56 41 85 l36 37 688 5 687 5 31 22
c88 63 84 188 -9 257 -28 21 -36 21 -870 26 l-842 5 -43 23 c-114 61 -108 192
11 247 l52 25 685 0 686 0 44 23 c48 24 90 88 90 137 0 49 -42 113 -90 138
l-44 22 -1631 0 -1630 0 -42 -21z"/>
<path d="M125 2130 c-61 -31 -80 -64 -80 -135 0 -72 20 -105 82 -136 38 -19
56 -20 207 -17 180 3 192 7 240 72 29 38 29 124 0 162 -48 65 -60 69 -242 72
-152 2 -171 1 -207 -18z"/>
<path d="M4655 1530 c-61 -31 -80 -64 -80 -135 0 -72 20 -105 82 -136 38 -19
56 -20 207 -17 148 3 167 5 192 24 51 38 69 71 69 129 0 58 -18 91 -69 129
-25 19 -44 21 -194 24 -152 2 -171 1 -207 -18z"/>
</g>
</svg>
