<svg width="546" height="445" viewBox="0 0 546 445" fill="none" xmlns="http://www.w3.org/2000/svg">
<path d="M196 69C210.4 50.6 267.667 32.6667 294.5 26C277.333 18 240.6 1.80001 231 1.00001C219 5.84126e-06 135 12 126 14C117 16 17 90 5.99999 100C-5.00001 110 4.99999 246 5.99999 253C6.79999 258.6 106.333 377.333 156 436L281 444C279.333 441.667 274.8 436.8 270 436C264 435 252 431 243 428C234 425 181 386 178 382C175.6 378.8 155.667 348.667 146 334L162 336C164.667 335.333 167.2 329 156 309C146 292 136 243 135 228C134 213 131 189 141 149C151 109 178 92 196 69Z" stroke="black"/>
<path d="M433 144C428.2 111.2 393 70.3333 376 54C390 44.6667 421 26 433 26C448 26 500 84 522 124C544 164 546 309 545 324C544 339 415 428 409 428C404.2 428 358.333 433.333 336 436V428C343 424 363.8 409.2 391 382C425 348 416 325 433 284C450 243 439 185 433 144Z" stroke="black"/>
</svg>
